# xmcd
#
# Track frame offsets:
#	150
#	13177
#	24523
#	39321
#	54733
#	65049
#	77183
#	93419
#	106203
#	117302
#	136518
#	151436
#	167288
#	178142
#	190744
#	204006
#	219231
#
# Disc length: 3081 seconds
#
# Revision: 1
# Processed by: cddbd v1.4PL0 Copyright (c) Steve Scherf et al.
# Submitted via: EasyCDDAExtractor 5.1.0
#
DISCID=d80c0711
DTITLE=Aretha Franklin - 30 Greatest Hits
DYEAR=1900
DGENRE=
TTITLE0=I Never Loved A Man (The Way I love you)
TTITLE1=Respect
TTITLE2=Do Right Woman, Do Right Man
TTITLE3=Dr. Feelgood
TTITLE4=Save Me
TTITLE5=Baby I Love You
TTITLE6=(You Make Me Feel Like) A Natural Woman
TTITLE7=Chain Of Fools
TTITLE8=Since You've Been Gone
TTITLE9=Ain't No Way
TTITLE10=Think
TTITLE11=I Say A Little Prayer
TTITLE12=The House That Jack Built
TTITLE13=See Saw
TTITLE14=The Weight
TTITLE15=Share Your Love With Me
TTITLE16=Eleanor Rigby
EXTD=
EXTT0=
EXTT1=
EXTT2=
EXTT3=
EXTT4=
EXTT5=
EXTT6=
EXTT7=
EXTT8=
EXTT9=
EXTT10=
EXTT11=
EXTT12=
EXTT13=
EXTT14=
EXTT15=
EXTT16=
PLAYORDER=
